<svg xmlns="http://www.w3.org/2000/svg" xmlns:xlink="http://www.w3.org/1999/xlink" viewBox="0 0 470.13 419.13"><defs><style>.cls-1,.cls-24{fill:none;}.cls-2,.cls-23{fill:#e0ebff;}.cls-2{fill-rule:evenodd;}.cls-3{fill:#f7f7f7;}.cls-4{clip-path:url(#clip-path);}.cls-14,.cls-5{fill:#e2e2e2;}.cls-5{opacity:0.64;}.cls-6{fill:#262f38;}.cls-7{fill:#999;}.cls-8{fill:#1e262d;}.cls-9{fill:#0f4fdf;}.cls-10{fill:#bababa;}.cls-11{fill:#dadada;}.cls-12{fill:#39ab68;}.cls-13{fill:#fff;}.cls-15{fill:#f3b8a5;}.cls-16{fill:#dd938a;}.cls-17{fill:#191e23;opacity:0.72;}.cls-18{fill:#0e3f96;}.cls-19{fill:#f7b313;}.cls-20{fill:#f47e14;}.cls-21{fill:#f74d57;}.cls-22{fill:#cc3644;}.cls-24{stroke:#e0ebff;stroke-miterlimit:10;stroke-width:2px;}</style><clipPath id="clip-path" transform="translate(3.65)"><path class="cls-1" d="M233.09,382.66c111.51,0,174.23-46.63,195.41-138S369.66,140.86,359.13,86.09,255.9-4.78,174.31,20.08s-153,111.5-158.6,183.7S67,382.66,233.09,382.66Z"/></clipPath></defs><g id="Layer_2" data-name="Layer 2"><g id="OBJECTS"><path class="cls-2" d="M238.59,65.09c122.18,0,190.9,44.55,214.11,131.87s-64.47,99.14-76,151.47-113.11,86.81-202.51,63.05S6.56,305,.41,236,56.65,65.09,238.59,65.09Z" transform="translate(3.65)"/><path class="cls-3" d="M233.09,382.66c111.51,0,174.23-46.63,195.41-138S369.66,140.86,359.13,86.09,255.9-4.78,174.31,20.08s-153,111.5-158.6,183.7S67,382.66,233.09,382.66Z" transform="translate(3.65)"/><g class="cls-4"><path class="cls-5" d="M7.82,205.5h16.7v23.71h16V181.12H57.24v28.35H84V171.1l15.69-15.69h21.71v29.72h20.7V155.41H342.42v21.3h20.7V159.08h22v30h19.37v33.4l10,10v14.7h28s84.15,114.87-63.44,127.56-240.43,16-257.79,15.36-70.8-21.37-70.8-21.37L15.34,342.07s-14.2-22.7-18.21-28.72S5.82,202.49,5.82,202.49" transform="translate(3.65)"/><rect class="cls-6" x="131.47" y="200" width="211.51" height="132.64" rx="11.94"/><polygon class="cls-6" points="342.98 332.64 131.47 332.64 107.45 344.73 367 344.73 342.98 332.64"/><polygon class="cls-7" points="120.09 341.73 132.19 335.64 342.26 335.64 354.36 341.73 120.09 341.73"/><path class="cls-8" d="M353.07,356h-239a10.28,10.28,0,0,1-10.28-10.28v-.94H363.35v.94A10.28,10.28,0,0,1,353.07,356Z" transform="translate(3.65)"/><rect class="cls-9" x="141.95" y="211.21" width="190.55" height="110.22"/><rect class="cls-10" x="154.61" y="133.51" width="164.26" height="205.13" rx="10.04"/><rect class="cls-11" x="160.61" y="139.52" width="152.25" height="193.12"/><rect class="cls-7" x="199.28" y="178.76" width="75.89" height="6.07"/><rect class="cls-7" x="199.28" y="215.72" width="75.89" height="6.07"/><rect class="cls-7" x="199.28" y="252.68" width="75.89" height="6.07"/><rect class="cls-7" x="199.28" y="289.65" width="75.89" height="6.07"/><circle class="cls-12" cx="181.63" cy="181.79" r="10.7"/><path class="cls-13" d="M177.19,186.58h0a2,2,0,0,1-1.46-.67l-3.61-4a1,1,0,0,1,1.5-1.33l3.61,4.06,6.39-7a1,1,0,1,1,1.47,1.36l-6.42,6.95A2,2,0,0,1,177.19,186.58Z" transform="translate(3.65)"/><circle class="cls-12" cx="177.98" cy="218.68" r="10.7" transform="translate(-98.85 189.9) rotate(-45)"/><path class="cls-13" d="M177.19,223.47h0a2,2,0,0,1-1.46-.67l-3.61-4.05a1,1,0,0,1,.09-1.42,1,1,0,0,1,1.41.09l3.61,4.05,6.39-6.95a1,1,0,0,1,1.42-.06,1,1,0,0,1,0,1.41l-6.42,7A2,2,0,0,1,177.19,223.47Z" transform="translate(3.65)"/><circle class="cls-12" cx="181.63" cy="255.57" r="10.7"/><path class="cls-13" d="M177.19,260.36h0a2,2,0,0,1-1.46-.67l-3.61-4.05a1,1,0,0,1,.09-1.42,1,1,0,0,1,1.41.09l3.61,4.05,6.39-7a1,1,0,0,1,1.42-.05,1,1,0,0,1,0,1.41l-6.42,7A2,2,0,0,1,177.19,260.36Z" transform="translate(3.65)"/><circle class="cls-12" cx="177.98" cy="292.46" r="10.7" transform="translate(-143.9 398.49) rotate(-76.72)"/><path class="cls-13" d="M177.19,297.24h0a2,2,0,0,1-1.46-.66l-3.61-4.06a1,1,0,0,1,1.5-1.33l3.61,4.06,6.39-7a1,1,0,0,1,1.42-.05,1,1,0,0,1,0,1.41l-6.42,7A2,2,0,0,1,177.19,297.24Z" transform="translate(3.65)"/><path class="cls-9" d="M245.13,129.64a15.78,15.78,0,0,0-31.56,0H195.51v16.2h67.68v-16.2Zm-15.78,8.1a8.1,8.1,0,1,1,8.1-8.1A8.1,8.1,0,0,1,229.35,137.74Z" transform="translate(3.65)"/><path class="cls-14" d="M103.23,98.93c5.65-.25,11.24-1.43,15.07-5,2.08-2,4.23-3.71,4.23-6.46a119.3,119.3,0,0,1,.88-13.34A2.39,2.39,0,0,1,127,72.34c1.52,1,3.12,2.75,3.69,6.2.33,2-.68,13.85-.68,13.85s19.45-.84,20.77,2.92-5.91,5.21-5.91,5.21,1.44,11.9-1.82,16.21c-6.48,8.56-25.66,6-39.84,5.75Z" transform="translate(3.65)"/><rect class="cls-9" x="105.21" y="95.92" width="9.73" height="29.37"/><path class="cls-14" d="M108.67,120.25a2.24,2.24,0,1,1-2.24-2.24A2.23,2.23,0,0,1,108.67,120.25Z" transform="translate(3.65)"/><path class="cls-15" d="M161.55,248.82c2.55-3.85,5.42-11.18,5.26-17s10.29-7.23,13.15-10.35,5.48-5.05,6.92-3.45-5.39,9.46-8.22,10.54c0,0,5.26,9.71,6.09,13.07s-3.46,9.92-5.07,10.09-.75-3.2-.75-3.2-6.36,9.61-11.19,9.22S161.55,248.82,161.55,248.82Z" transform="translate(3.65)"/><path class="cls-16" d="M163.3,245.71a51.61,51.61,0,0,0,12.9,6.37s-2.61,3.42-4.57,4.46-9.11-8.9-9.11-8.9Z" transform="translate(3.65)"/><polygon class="cls-15" points="95.07 252.69 92.45 260.7 80.79 255.65 86.36 237.54 95.07 252.69"/><path class="cls-16" d="M90.65,255.06a36.23,36.23,0,0,1-11.39-6.64l3.84-9.69,9,12.44Z" transform="translate(3.65)"/><path class="cls-15" d="M107.66,224c-.07,6.78,7.09,17.13,7.09,17.13l-5.82,2-2,13.3s-15.49-1.41-22.35-9-1-23.34-1-23.34,4.52-5.66,5.77-5.81,15.39,1.18,15.39,1.18Z" transform="translate(3.65)"/><path class="cls-6" d="M113.71,221.8c-6.45,2.69-23.86,3.21-23.86,3.21l-2.44,15-8.16,8.43c-10.62-8.79-15.07-16.61-15.17-23.82a24,24,0,0,1,.59-5.82c1.48-6.62,5.85-11.88,13.34-15,9.58-4,20.55-1,24.38,0s-.87-7-5.23-5.92,5.58-8,15.5-.09a17.19,17.19,0,0,1,6.58,11.68C119.84,215.05,117.45,220.24,113.71,221.8Z" transform="translate(3.65)"/><path class="cls-17" d="M113.71,221.8c-6.45,2.69-23.86,3.21-23.86,3.21l-2.44,15-8.16,8.43c-10.62-8.79-15.07-16.61-15.17-23.82a24,24,0,0,1,.59-5.82c-1.74,11.05,9.49,15.88,9.2,10.61s3.69-12.59,16.6-10.7,17.59-.39,17.59-.39-7.09-.94-3.4-3.92c3.49-2.81,9.51,2.75,14.58-4.95C119.84,215.05,117.45,220.24,113.71,221.8Z" transform="translate(3.65)"/><path class="cls-15" d="M89.15,235.63c-1-8-5.57-9.23-7.83-6.1s-.7,15.85,6.44,13.06S89.15,235.63,89.15,235.63Z" transform="translate(3.65)"/><path class="cls-13" d="M105.71,245.24a7.46,7.46,0,0,1-4.64-1.9s.11,4.93,3.39,5.08Z" transform="translate(3.65)"/><path class="cls-6" d="M104.7,230c.29,1.28,1,2.21,1.53,2.09s.77-1.27.48-2.55-1-2.21-1.53-2.09S104.41,228.71,104.7,230Z" transform="translate(3.65)"/><path class="cls-16" d="M86.6,236.08c-1.39-4.93-3-3.92-3.46-.62a4,4,0,0,0,2.71,4.27Z" transform="translate(3.65)"/><path class="cls-9" d="M171.63,256.54s-5.88,14.18-12.56,29.41a.08.08,0,0,0,0,0c-6.68,15.23-14.15,31.49-17.35,35.75-5.63,7.49-22.54-3.09-37.61-13.74-2.1-1.49-4.17-3-6.16-4.41q-1.75-1.26-3.43-2.58h0a150.89,150.89,0,0,1-24.67-24.83l-1-11.55-.2-2.14,2.13-.2c10.4-1,16.27-1.17,17.1.22s3.07,6.15,3.07,6.15,1.27.93,3.32,2.46c7.4,5.51,25,18.81,29.47,24.09l38.41-48Z" transform="translate(3.65)"/><path class="cls-9" d="M94.19,271.12c0,1.67.41,14.62.31,29.89v0c-.09,12.58-.49,26.75-1.64,37.48A84,84,0,0,1,91.2,349c-4.76,19.79-62-21.34-62-21.34s1.47-4.18,4.05-10.55c6.27-15.46,19-43.8,33.06-56.44,0,0,5.79-8.19,7.77-7.92a55.46,55.46,0,0,1,10,2.28c6.07,1.89,11.71,4.42,12,5.64.38,1.93-1.93,10.23-1.93,10.23Z" transform="translate(3.65)"/><path class="cls-18" d="M94.5,301c-.09,12.58-.49,26.75-1.64,37.48-.48.09-.86,13.54-.86,13.54S68.74,335.1,59.89,331s-22.1-10.32-26.61-13.82c6.27-15.46,19-43.8,33.06-56.44,0,0,5.79-8.19,7.77-7.92a55.46,55.46,0,0,1,10,2.28c1.39,4-10-2.28-11.62,3.69a10.91,10.91,0,0,1-1.84,3.53c-.56.76-1.21,1.54-1.93,2.34-4.34,4.86-11.25,10.54-15.36,17.13-5.9,9.45-2.65,18.26,10.67,28.87s24.4,7.08,22.52-2.06S72.27,290,73.16,286s5.6,3.16,21.33,15.06Z" transform="translate(3.65)"/><path class="cls-18" d="M159.05,286c-6.68,15.23-14.15,31.49-17.35,35.75-5.63,7.49-22.54-3.09-37.61-13.74-6.35-6.6-9.48-10.82-3-7.19,8.78,4.91,13.44,14.25,31,14.83S148.32,304.76,159.05,286Z" transform="translate(3.65)"/><path class="cls-19" d="M382,269.77c-2.59,5.17-25.84,18.64-23.25,10.15a9.72,9.72,0,0,0,.47-3.67c-.48-5.73-7.45-8.75-16.9-18.66a22.11,22.11,0,0,1-3.21-4.37l0-.05c-7.79-13.59-6.27-38,5.09-44.24,0,0,27.31,4.74,30.85,7.09s7.71,18.32,7.71,18.32S384.58,264.6,382,269.77Z" transform="translate(3.65)"/><path class="cls-20" d="M372.2,262s-9.11,10.9-9.88,13.08c-.23.67-1.48,1-3.1,1.16-.48-5.73-7.45-8.75-16.9-18.66a22.11,22.11,0,0,1-3.21-4.37c3.49,5.85,16,14.44,16.8,11.68s-5.93-3.72-5.31-5.65,9.18.13,0-5.81-15.34-30.12-8.56-39l15.57,5.07,14,22.55Z" transform="translate(3.65)"/><polygon class="cls-15" points="363.22 246.85 367 258.43 378.67 253.38 373.09 235.27 363.22 246.85"/><path class="cls-16" d="M370.53,238.41c-.64,5.79-8.95,14.59-8.95,14.59l-1.43-4.37,6.62-10.22,2.48-3.9Z" transform="translate(3.65)"/><path class="cls-15" d="M344.49,221.75c.08,6.77-7.08,17.13-7.08,17.13l5.82,2,2.16,14.38s14.05-4.07,20.92-11.67,2.29-21.77,2.29-21.77-4.51-5.67-5.77-5.81-15.38,1.17-15.38,1.17Z" transform="translate(3.65)"/><path class="cls-6" d="M347.45,227.71c-.29,1.28-1,2.22-1.53,2.09s-.77-1.26-.48-2.54,1-2.22,1.53-2.09S347.74,226.43,347.45,227.71Z" transform="translate(3.65)"/><path class="cls-13" d="M347.31,243.39a14.81,14.81,0,0,0,6.44-6.09s1.49,7.66-5,9.55Z" transform="translate(3.65)"/><path class="cls-15" d="M288.71,281.22c-4-2.31-9.84-7.59-12.29-12.86S264,266.47,260,265s-7.16-2.08-7.73,0,9.05,6.06,12.06,5.76c0,0-.38,11,.38,14.41s7.53,7.33,9,6.77-.75-3.2-.75-3.2,10,5.76,14.13,3.25S288.71,281.22,288.71,281.22Z" transform="translate(3.65)"/><path class="cls-16" d="M285.49,279a27.9,27.9,0,0,1-7.06,12.22s2.08,1.68,6.32,1.15,2.57-11.79,2.57-11.79" transform="translate(3.65)"/><path class="cls-21" d="M383,264.74s-3.58,19.28-12.92,37.08c-4.51,8.6-9.68,18.35-14.91,25.6-.16.25-.34.49-.52.72-5.41,7.34-10.86,11.86-15.64,9.47-5.8-2.9-25.19-18.89-39.51-31l-.66-.56h0c-8.92-7.54-15.71-13.43-15.71-13.43l4.18-12,56,25.22c2.14-8.6,17.49-38.4,17.49-38.4s-.13-5.16,0-6.88,6.19-4.37,17.2-8.6Z" transform="translate(3.65)"/><path class="cls-22" d="M354.66,328.14c-5.41,7.34-10.86,11.86-15.64,9.47-5.8-2.9-25.19-18.89-39.51-31l-.66-.56a224.41,224.41,0,0,1,26.32,18.18C336.71,333.76,349.06,335.42,354.66,328.14Z" transform="translate(3.65)"/><path class="cls-21" d="M426.38,331.61l-37.69,22.07s-24,10-24.65,5.24c-.46-3.24-2.24-22.87-3.41-41-.56-8.59-1-16.84-1.06-22.84L378,251.93s3.27-.88,8.72,6.5c.93,1.26,2.71,4.24,5,8.3C402.89,286.41,426.38,331.61,426.38,331.61Z" transform="translate(3.65)"/><path class="cls-22" d="M426.38,331.61l-37.69,22.07s-24,10-24.65,5.24c-.46-3.24-2.24-22.87-3.41-41,8.74-10.37,14.72-25.17,17.38-22.84s-7.89,23.9-12.25,29-2.13,14.07,9.26,2.19,23.26-21.1,23.89-31.19-21.58-4.44-26-11.64c-3.17-5.21,9.91-12.74,18.78-16.72C402.89,286.41,426.38,331.61,426.38,331.61Z" transform="translate(3.65)"/><path class="cls-19" d="M409.91,272c-8.67,17.71-29.15,13.84-38,9.22a16.07,16.07,0,0,1-8.55-13.81A17.56,17.56,0,0,1,367,256.16c6.55-8.68,4.16-27-2.79-26.84l-3,.07c-7.17.11-17.27-.69-19.39-15.94-.81-5.81,5.74-16.48,23.6-18.74,13.48-1.71,25.69,7.94,28,18h0a15,15,0,0,1,.38,2.46c.74,10.89-9.78,18.82.74,21.54S418.58,254.31,409.91,272Z" transform="translate(3.65)"/><path class="cls-15" d="M360.45,231.56c1-8,5.57-9.23,7.84-6.1s.69,15.85-6.45,13.06S360.45,231.56,360.45,231.56Z" transform="translate(3.65)"/><path class="cls-16" d="M362.33,230.72c.64-3.1,3.09-3.1,3.41-1.17s-2.77,5.72-2.77,5.72Z" transform="translate(3.65)"/><path class="cls-20" d="M409.91,272c-8.67,17.71-29.15,13.84-38,9.22a16.07,16.07,0,0,1-8.55-13.81c4.63,7.72,22.79,11.32,24.14,8.81,1.56-2.89-12.91-4.23-11.13-9.52s22.7,7.07,27.6-2.69,2.41-19.55-7.12-22-13.8,1-13.5-4.78,9.71-11.35,10.49-22.1c.74,10.89-9.78,18.82.74,21.54S418.58,254.31,409.91,272Z" transform="translate(3.65)"/></g><polygon class="cls-19" points="277.03 105.98 267.89 110.79 269.64 100.61 262.24 93.4 272.46 91.92 277.03 82.65 281.61 91.92 291.83 93.4 284.43 100.61 286.18 110.79 277.03 105.98"/><polygon class="cls-19" points="198.34 105.98 189.2 110.79 190.94 100.61 183.54 93.4 193.77 91.92 198.34 82.65 202.91 91.92 213.13 93.4 205.74 100.61 207.48 110.79 198.34 105.98"/><polygon class="cls-19" points="235.55 90.39 228.61 94.03 229.93 86.31 224.32 80.83 232.08 79.71 235.55 72.68 239.02 79.71 246.78 80.83 241.16 86.31 242.49 94.03 235.55 90.39"/><path class="cls-2" d="M36.27,32.94a14.63,14.63,0,0,1,8.36,2.64,15,15,0,0,1,27.71,5.68,12.57,12.57,0,0,1,6.86,2.35,12.56,12.56,0,0,1,3-.35A12.69,12.69,0,0,1,93,49.41H20.5C20.93,40.23,27.83,32.94,36.27,32.94Z" transform="translate(3.65)"/><path class="cls-2" d="M389.21,52.43a14.65,14.65,0,0,1,8.37,2.65,15,15,0,0,1,27.7,5.68,12.5,12.5,0,0,1,6.87,2.35A12.69,12.69,0,0,1,446,68.9H373.45C373.88,59.72,380.78,52.43,389.21,52.43Z" transform="translate(3.65)"/><circle class="cls-23" cx="62.59" cy="372.38" r="9.09"/><circle class="cls-24" cx="40.26" cy="87.2" r="9.09"/><line class="cls-24" x1="374.45" y1="0.5" x2="355.17" y2="33.61"/><line class="cls-24" x1="99.95" y1="5.99" x2="119" y2="25.87"/><line class="cls-24" x1="131.85" y1="0.5" x2="140.19" y2="15.93"/></g></g></svg>