<svg xmlns="http://www.w3.org/2000/svg" xmlns:xlink="http://www.w3.org/1999/xlink" viewBox="0 0 1211.65 925.81"><defs><style>.cls-1,.cls-9{fill:none;}.cls-2{isolation:isolate;}.cls-3{fill:#9bccee;}.cls-4{clip-path:url(#clip-path);}.cls-10,.cls-5{opacity:0.39;}.cls-5{fill:url(#linear-gradient);}.cls-17,.cls-6{opacity:0.28;}.cls-6{fill:url(#linear-gradient-2);}.cls-11,.cls-13,.cls-14,.cls-17,.cls-7{mix-blend-mode:soft-light;}.cls-16,.cls-7{opacity:0.63;}.cls-7{fill:url(#linear-gradient-3);}.cls-8{opacity:0.32;}.cls-9{stroke:#fff;stroke-miterlimit:10;}.cls-10{fill:url(#linear-gradient-4);}.cls-11{fill:#5e61de;}.cls-12,.cls-15,.cls-16{mix-blend-mode:hard-light;}.cls-12,.cls-13,.cls-14{opacity:0.53;}.cls-12{fill:url(#linear-gradient-5);}.cls-13,.cls-16{fill:#afdff9;}.cls-14{fill:url(#linear-gradient-6);}.cls-15{opacity:0.23;fill:url(#linear-gradient-7);}.cls-17{fill:url(#linear-gradient-8);}</style><clipPath id="clip-path" transform="translate(199.52 260.55)"><rect class="cls-1" width="750" height="500"/></clipPath><linearGradient id="linear-gradient" x1="581.68" y1="10.93" x2="553.67" y2="94.06" gradientTransform="translate(197.53 -391.15) rotate(45)" gradientUnits="userSpaceOnUse"><stop offset="0" stop-color="#6898e1"/><stop offset="1" stop-color="#5b62dd"/></linearGradient><linearGradient id="linear-gradient-2" x1="262.69" y1="249.79" x2="281.67" y2="-11.34" gradientTransform="translate(206.47 -136.23) rotate(45)" gradientUnits="userSpaceOnUse"><stop offset="0" stop-color="#6898e1"/><stop offset="1" stop-color="#95c5f0"/></linearGradient><linearGradient id="linear-gradient-3" x1="532.91" y1="589.88" x2="905.66" y2="589.88" gradientUnits="userSpaceOnUse"><stop offset="0" stop-color="#5e61de"/><stop offset="1" stop-color="#afdff9"/></linearGradient><linearGradient id="linear-gradient-4" x1="254.58" y1="676.8" x2="318.56" y2="676.8" gradientTransform="matrix(1, 0, 0, 1, 0, 0)" xlink:href="#linear-gradient"/><linearGradient id="linear-gradient-5" x1="269.1" y1="-46.21" x2="90.2" y2="189.62" gradientTransform="translate(105.81 -101.77) rotate(45)" xlink:href="#linear-gradient-3"/><linearGradient id="linear-gradient-6" x1="28.24" x2="246.86" gradientTransform="translate(40.29 -97.26) rotate(45)" gradientUnits="userSpaceOnUse"><stop offset="0" stop-color="#fff"/><stop offset="1" stop-color="#afdff9"/></linearGradient><linearGradient id="linear-gradient-7" x1="561.77" y1="380.74" x2="664.77" y2="517.18" gradientTransform="translate(504.17 -303.99) rotate(45)" xlink:href="#linear-gradient-6"/><linearGradient id="linear-gradient-8" x1="267.68" y1="392.25" x2="672.17" y2="392.25" gradientTransform="translate(415 -217.4) rotate(45)" xlink:href="#linear-gradient-6"/></defs><g class="cls-2"><g id="Layer_2" data-name="Layer 2"><g id="BACKGROUND"><rect class="cls-3" x="199.52" y="260.55" width="750" height="500"/></g><g id="OBJECTS"><g class="cls-4"><circle class="cls-5" cx="570.92" cy="42.86" r="63.98" transform="translate(336.43 676.8) rotate(-45)"/><circle class="cls-6" cx="267.68" cy="181.12" r="202.24" transform="translate(149.85 502.87) rotate(-45)"/><circle class="cls-7" cx="719.29" cy="589.88" r="186.38"/><g class="cls-8"><line class="cls-9" x1="88.84" y1="368.23" x2="378.57" y2="833.26"/><line class="cls-9" x1="82.04" y1="375.33" x2="371.77" y2="840.36"/><line class="cls-9" x1="75.24" y1="382.43" x2="364.97" y2="847.46"/><line class="cls-9" x1="68.44" y1="389.52" x2="358.17" y2="854.56"/><line class="cls-9" x1="61.64" y1="396.62" x2="351.37" y2="861.66"/><line class="cls-9" x1="54.84" y1="403.72" x2="344.57" y2="868.76"/><line class="cls-9" x1="48.03" y1="410.82" x2="337.76" y2="875.86"/><line class="cls-9" x1="41.23" y1="417.92" x2="330.96" y2="882.96"/><line class="cls-9" x1="34.43" y1="425.02" x2="324.16" y2="890.05"/><line class="cls-9" x1="27.63" y1="432.12" x2="317.36" y2="897.15"/><line class="cls-9" x1="20.83" y1="439.22" x2="310.56" y2="904.25"/><line class="cls-9" x1="14.03" y1="446.32" x2="303.76" y2="911.35"/><line class="cls-9" x1="7.23" y1="453.41" x2="296.96" y2="918.45"/><line class="cls-9" x1="0.42" y1="460.51" x2="290.15" y2="925.55"/></g><circle class="cls-10" cx="286.57" cy="676.8" r="31.99"/><circle class="cls-11" cx="99.04" cy="430.24" r="31.99" transform="translate(-142.93 688.33) rotate(-76.72)"/><circle class="cls-12" cx="175.75" cy="76.84" r="186.38" transform="translate(196.66 407.33) rotate(-45)"/><circle class="cls-13" cx="336.84" cy="260.55" r="130.6"/><circle class="cls-14" cx="137.55" r="109.31" transform="translate(239.81 357.81) rotate(-45)"/><circle class="cls-15" cx="619.03" cy="456.59" r="109.31" transform="translate(57.97 832) rotate(-45)"/><g class="cls-8"><circle class="cls-9" cx="749.8" cy="1.79" r="261.84" transform="translate(417.86 791.26) rotate(-45)"/><circle class="cls-9" cx="949.31" cy="262.34" r="251.7"/><circle class="cls-9" cx="949.31" cy="262.34" r="241.56"/><circle class="cls-9" cx="949.31" cy="262.34" r="231.43"/><circle class="cls-9" cx="749.8" cy="1.79" r="221.29" transform="translate(417.86 791.26) rotate(-45)"/><circle class="cls-9" cx="749.8" cy="1.79" r="211.15" transform="translate(417.86 791.26) rotate(-45)"/><circle class="cls-9" cx="949.31" cy="262.34" r="201.01"/><circle class="cls-9" cx="949.31" cy="262.34" r="190.88"/><circle class="cls-9" cx="949.31" cy="262.34" r="180.74"/><circle class="cls-9" cx="749.8" cy="1.79" r="170.6" transform="translate(417.86 791.26) rotate(-45)"/><circle class="cls-9" cx="949.31" cy="262.34" r="160.47"/><circle class="cls-9" cx="949.31" cy="262.34" r="150.33"/><circle class="cls-9" cx="949.31" cy="262.34" r="140.19"/><circle class="cls-9" cx="949.31" cy="262.34" r="130.05"/><circle class="cls-9" cx="949.31" cy="262.34" r="119.92"/><circle class="cls-9" cx="949.31" cy="262.34" r="109.78"/><circle class="cls-9" cx="949.31" cy="262.34" r="99.64"/><circle class="cls-9" cx="949.31" cy="262.34" r="89.51"/><circle class="cls-9" cx="749.8" cy="1.79" r="79.37" transform="translate(831.17 1002.77) rotate(-81.07)"/><circle class="cls-9" cx="949.31" cy="262.34" r="69.23"/><circle class="cls-9" cx="949.31" cy="262.34" r="59.1"/><circle class="cls-9" cx="949.31" cy="262.34" r="48.96"/><circle class="cls-9" cx="749.8" cy="1.79" r="38.82" transform="translate(831.13 1002.76) rotate(-81.07)"/><circle class="cls-9" cx="749.8" cy="1.79" r="28.68" transform="translate(330.12 685.17) rotate(-34.47)"/><circle class="cls-9" cx="749.8" cy="1.79" r="18.55" transform="translate(917.94 1011.48) rotate(-87.74)"/><circle class="cls-9" cx="749.8" cy="1.79" r="8.41" transform="translate(920.5 1011.58) rotate(-87.93)"/></g><circle class="cls-16" cx="829.03" cy="302.51" r="29.25"/><circle class="cls-17" cx="469.92" cy="392.25" r="202.24" transform="translate(59.79 707.72) rotate(-45)"/></g></g></g></g></svg>